<svg width="400" height="400" viewBox="0 0 400 400" fill="none" xmlns="http://www.w3.org/2000/svg">
<rect width="400" height="400" fill="#29304A"/>
<path d="M272 273C272 306.137 299.758 333 334 333L334 273C299.758 273 272 273 272 273Z" fill="white"/>
<path fill-rule="evenodd" clip-rule="evenodd" d="M129 66C94.7583 66 67 93.7583 67 128V271C67 305.242 94.7583 333 129 333H253L266.5 318L280 303H325.114C330.755 293.658 334 282.708 334 271V128C334 93.7583 306.242 66 272 66H129ZM153 157C153 147.611 160.611 140 170 140H231C240.389 140 248 147.611 248 157L248 188.869L248 188.871V189.802C248 190.127 247.991 190.451 247.973 190.772L247.976 190.97C248.093 197.39 248.412 214.943 231.381 236.086C213.143 258.727 172.661 261.814 160.917 259.241C164.371 255.811 173.9 245.774 181.642 230.941C185.77 223.031 187.656 214.484 188.304 206.802H170C160.611 206.802 153 199.19 153 189.802V157Z" fill="white"/>
</svg>
